<?xml version="1.0" encoding="utf-8"?>
<!-- Generator: Adobe Illustrator 16.0.0, SVG Export Plug-In . SVG Version: 6.00 Build 0)  -->
<!DOCTYPE svg PUBLIC "-//W3C//DTD SVG 1.1//EN" "http://www.w3.org/Graphics/SVG/1.1/DTD/svg11.dtd">
<svg version="1.1" xmlns="http://www.w3.org/2000/svg" xmlns:xlink="http://www.w3.org/1999/xlink" x="0px" y="0px" width="612px"
	 height="792px" viewBox="0 0 612 792" enable-background="new 0 0 612 792" xml:space="preserve">
<g id="Layer_2_1_">
	<g>
		<path fill="#21884D" d="M0.431,656.902c0,27.614,22.386,50,50,50h511.138c27.614,0,50-22.386,50-50v-510.51
			c0-27.614-22.386-50-50-50H50.431c-27.614,0-50,22.386-50,50V656.902z"/>
	</g>
</g>
<g id="Layer_3_1_">
	<g>
		<path fill="#2ECC71" d="M0.431,617.5c0,27.614,22.386,50,50,50h511.138c27.614,0,50-22.386,50-50V140.83c0-27.614-22.386-50-50-50
			H50.431c-27.614,0-50,22.386-50,50V617.5z"/>
	</g>
</g>
<g id="Layer_1">
	<g id="Layer_2">
		<path fill="#99AAB5" d="M520.494,482.171c0,13.156-10.678,23.834-23.834,23.834H115.339c-13.156,0-23.833-10.678-23.833-23.834
			v-190.66c0-13.156,10.677-23.833,23.833-23.833H496.66c13.156,0,23.834,10.677,23.834,23.833V482.171z"/>
		<path fill="#292F33" d="M157.046,374.925c0,6.59-5.339,11.916-11.917,11.916h-11.917c-6.578,0-11.916-5.326-11.916-11.916v-11.916
			c0-6.59,5.338-11.917,11.916-11.917h11.917c6.578,0,11.917,5.327,11.917,11.917V374.925z M204.711,374.925
			c0,6.59-5.338,11.916-11.916,11.916h-11.916c-6.578,0-11.917-5.326-11.917-11.916v-11.916c0-6.59,5.339-11.917,11.917-11.917
			h11.916c6.578,0,11.916,5.327,11.916,11.917V374.925z M252.376,374.925c0,6.59-5.339,11.916-11.917,11.916h-11.916
			c-6.578,0-11.917-5.326-11.917-11.916v-11.916c0-6.59,5.338-11.917,11.917-11.917h11.916c6.578,0,11.917,5.327,11.917,11.917
			V374.925z M300.042,374.925c0,6.59-5.34,11.916-11.917,11.916h-11.917c-6.578,0-11.916-5.326-11.916-11.916v-11.916
			c0-6.59,5.338-11.917,11.916-11.917h11.917c6.577,0,11.917,5.327,11.917,11.917V374.925z M347.707,374.925
			c0,6.59-5.327,11.916-11.917,11.916h-11.916c-6.59,0-11.916-5.326-11.916-11.916v-11.916c0-6.59,5.326-11.917,11.916-11.917
			h11.916c6.59,0,11.917,5.327,11.917,11.917V374.925z M395.371,374.925c0,6.59-5.325,11.916-11.916,11.916h-11.916
			c-6.59,0-11.916-5.326-11.916-11.916v-11.916c0-6.59,5.326-11.917,11.916-11.917h11.916c6.591,0,11.916,5.327,11.916,11.917
			V374.925z M443.037,374.925c0,6.59-5.325,11.916-11.916,11.916h-11.916c-6.591,0-11.916-5.326-11.916-11.916v-11.916
			c0-6.59,5.325-11.917,11.916-11.917h11.916c6.591,0,11.916,5.327,11.916,11.917V374.925z M490.703,374.925
			c0,6.59-5.327,11.916-11.916,11.916h-11.918c-6.589,0-11.916-5.326-11.916-11.916v-11.916c0-6.59,5.327-11.917,11.916-11.917
			h11.918c6.589,0,11.916,5.327,11.916,11.917V374.925z M180.879,422.59c0,6.59-5.339,11.917-11.917,11.917h-11.916
			c-6.578,0-11.917-5.327-11.917-11.917v-11.916c0-6.589,5.338-11.916,11.917-11.916h11.916c6.578,0,11.917,5.327,11.917,11.916
			V422.59z M228.544,422.59c0,6.59-5.339,11.917-11.917,11.917h-11.917c-6.577,0-11.916-5.327-11.916-11.917v-11.916
			c0-6.589,5.339-11.916,11.916-11.916h11.917c6.578,0,11.917,5.327,11.917,11.916V422.59z M276.209,422.59
			c0,6.59-5.338,11.917-11.916,11.917h-11.917c-6.578,0-11.917-5.327-11.917-11.917v-11.916c0-6.589,5.339-11.916,11.917-11.916
			h11.917c6.578,0,11.916,5.327,11.916,11.916V422.59z M323.874,422.59c0,6.59-5.326,11.917-11.916,11.917h-11.916
			c-6.578,0-11.917-5.327-11.917-11.917v-11.916c0-6.589,5.338-11.916,11.917-11.916h11.916c6.59,0,11.916,5.327,11.916,11.916
			V422.59z M371.539,422.59c0,6.59-5.325,11.917-11.916,11.917h-11.916c-6.591,0-11.917-5.327-11.917-11.917v-11.916
			c0-6.589,5.326-11.916,11.917-11.916h11.916c6.591,0,11.916,5.327,11.916,11.916V422.59z M419.205,422.59
			c0,6.59-5.327,11.917-11.916,11.917h-11.918c-6.589,0-11.916-5.327-11.916-11.917v-11.916c0-6.589,5.327-11.916,11.916-11.916
			h11.918c6.589,0,11.916,5.327,11.916,11.916V422.59z M466.869,422.59c0,6.59-5.325,11.917-11.916,11.917h-11.916
			c-6.591,0-11.916-5.327-11.916-11.917v-11.916c0-6.589,5.325-11.916,11.916-11.916h11.916c6.591,0,11.916,5.327,11.916,11.916
			V422.59z M210.669,470.255c0,6.591-5.339,11.916-11.917,11.916H174.92c-6.578,0-11.916-5.325-11.916-11.916v-11.916
			c0-6.59,5.338-11.916,11.916-11.916h23.833c6.578,0,11.917,5.326,11.917,11.916V470.255z M448.996,470.255
			c0,6.591-5.327,11.916-11.916,11.916h-23.834c-6.59,0-11.916-5.325-11.916-11.916v-11.916c0-6.59,5.326-11.916,11.916-11.916
			h23.834c6.589,0,11.916,5.326,11.916,11.916V470.255z M389.414,470.255c0,6.591-5.327,11.916-11.916,11.916H234.502
			c-6.578,0-11.917-5.325-11.917-11.916v-11.916c0-6.59,5.339-11.916,11.917-11.916h142.996c6.589,0,11.916,5.326,11.916,11.916
			V470.255z M157.046,304.416c0,6.578-5.339,11.917-11.917,11.917h-11.917c-6.578,0-11.916-5.338-11.916-11.917
			s5.338-11.916,11.916-11.916h11.917C151.708,292.5,157.046,297.838,157.046,304.416z M204.711,304.416
			c0,6.578-5.338,11.917-11.916,11.917h-11.916c-6.578,0-11.917-5.338-11.917-11.917s5.339-11.916,11.917-11.916h11.916
			C199.373,292.5,204.711,297.838,204.711,304.416z M252.376,304.416c0,6.578-5.339,11.917-11.917,11.917h-11.916
			c-6.578,0-11.917-5.338-11.917-11.917s5.338-11.916,11.917-11.916h11.916C247.038,292.5,252.376,297.838,252.376,304.416z
			 M300.042,304.416c0,6.578-5.34,11.917-11.917,11.917h-11.917c-6.578,0-11.916-5.338-11.916-11.917s5.338-11.916,11.916-11.916
			h11.917C294.702,292.5,300.042,297.838,300.042,304.416z M347.707,304.416c0,6.578-5.327,11.917-11.917,11.917h-11.916
			c-6.59,0-11.916-5.338-11.916-11.917s5.326-11.916,11.916-11.916h11.916C342.38,292.5,347.707,297.838,347.707,304.416z
			 M395.371,304.416c0,6.578-5.325,11.917-11.916,11.917h-11.916c-6.59,0-11.916-5.338-11.916-11.917s5.326-11.916,11.916-11.916
			h11.916C390.046,292.5,395.371,297.838,395.371,304.416z M443.037,304.416c0,6.578-5.325,11.917-11.916,11.917h-11.916
			c-6.591,0-11.916-5.338-11.916-11.917s5.325-11.916,11.916-11.916h11.916C437.712,292.5,443.037,297.838,443.037,304.416z
			 M490.703,304.416c0,6.578-5.327,11.917-11.916,11.917h-11.918c-6.589,0-11.916-5.338-11.916-11.917s5.327-11.916,11.916-11.916
			h11.918C485.376,292.5,490.703,297.838,490.703,304.416z"/>
	</g>
	<g id="Layer_1_1_">
		<path fill="#FFDC5D" d="M170.265,530.53h71.062v69.9h-71.062V530.53z M365.684,530.53h71.063v69.9h-71.063V530.53z"/>
		<path fill="#F9CA55" d="M436.746,554.691c0,0-26.649,17.765-71.063,8.883v-44.413h71.063V554.691z M170.265,554.691
			c0,0,26.648,17.765,71.062,8.883v-44.413h-71.062V554.691z"/>
		<path fill="#FFDC5D" d="M178.997,464.833h71.061v71.063h-71.061V464.833z M356.854,460.392h71.062v71.063h-71.062V460.392z"/>
		<path fill="#FFDC5D" d="M146.93,404.706c0,0,0.027-10.88,10.9-10.854c10.89,0.035,10.854,10.917,10.854,10.917l-0.169,50.488
			c1.732-0.8,3.544-1.52,5.445-2.142l0.222-70.075c0,0,0.036-10.88,10.9-10.846c10.872,0.027,10.845,10.917,10.845,10.917
			l-0.187,65.909c1.768-0.161,3.589-0.284,5.418-0.374l0.249-76.408c0,0,0.026-10.881,10.908-10.837
			c10.881,0.036,10.836,10.917,10.836,10.917l-0.248,76.391c1.865,0.106,3.66,0.293,5.454,0.463l0.221-71.408
			c0,0,0.037-10.881,10.9-10.837c10.872,0.026,10.828,10.898,10.828,10.898l-0.213,75.512l-0.027,6.05v5.428
			c-32.635-0.08-54.478,27.021-54.575,54.219c0,5.438,5.436,5.473,5.436,5.473c0.089-32.67,21.913-54.316,54.558-54.22
			l15.997-37.201c0,0,3.509-10.295,13.821-6.769c10.287,3.482,6.795,13.795,6.795,13.795l-7.932,27.581
			c-3.145,10.962-6.084,21.994-7.63,33.257c-4.424,31.836-31.809,56.315-64.834,56.228c-36.02-0.151-65.155-29.446-65.039-65.466
			c0.009-1.899,0.124-3.712,0.302-5.419l-0.285-0.034L146.93,404.706L146.93,404.706z M459.991,404.706
			c0,0-0.025-10.88-10.898-10.854c-10.891,0.035-10.864,10.917-10.864,10.917l0.17,50.488c-1.723-0.8-3.546-1.52-5.438-2.142
			l-0.223-70.075c0,0-0.035-10.88-10.898-10.846c-10.881,0.027-10.853,10.917-10.853,10.917l0.192,65.909
			c-1.757-0.161-3.576-0.284-5.416-0.374l-0.24-76.408c0,0-0.038-10.881-10.918-10.837c-10.879,0.036-10.836,10.917-10.836,10.917
			l0.248,76.391c-1.865,0.106-3.659,0.293-5.454,0.463l-0.221-71.408c0,0-0.045-10.881-10.909-10.837
			c-10.872,0.026-10.827,10.898-10.827,10.898l0.213,75.512l0.026,6.05v5.428c32.635-0.08,54.478,27.021,54.584,54.219
			c0,5.438-5.436,5.473-5.436,5.473c-0.098-32.67-21.922-54.316-54.558-54.22l-15.998-37.201c0,0-3.498-10.295-13.822-6.769
			c-10.275,3.482-6.794,13.795-6.794,13.795l7.933,27.581c3.143,10.962,6.084,21.994,7.629,33.257
			c4.424,31.836,31.801,56.315,64.835,56.228c36.021-0.151,65.163-29.446,65.038-65.466c-0.008-1.899-0.123-3.712-0.301-5.419
			l0.283-0.034L459.991,404.706z"/>
		<path fill="#5DADEC" d="M352.726,356.944c-1.894,0-3.812-0.604-5.42-1.847c-3.891-3.003-4.601-8.58-1.599-12.462l26.462-34.243
			c2.976-3.873,8.572-4.619,12.453-1.599c3.892,3.002,4.601,8.581,1.599,12.462l-26.459,34.243
			C358.02,355.764,355.388,356.944,352.726,356.944z M254.838,356.944c-2.656,0-5.285-1.19-7.035-3.456l-26.461-34.233
			c-2.993-3.882-2.274-9.46,1.608-12.462c3.882-2.994,9.451-2.283,12.462,1.599l26.461,34.243c2.994,3.882,2.283,9.46-1.599,12.462
			C258.648,356.35,256.738,356.944,254.838,356.944z M303.507,352.876c-4.904,0-8.884-3.979-8.884-8.883v-35.531
			c0-4.903,3.979-8.882,8.884-8.882c4.91,0,8.881,3.979,8.881,8.882v35.531C312.388,348.897,308.417,352.876,303.507,352.876z"/>
	</g>
	<g id="Layer_3">
		<path fill="#66757F" d="M305.647,208.882h-13.387c-1.29-5.452-3.44-10.556-6.299-15.187l9.473-9.473
			c3.11-3.109,3.11-8.154,0-11.264l-5.631-5.631c-3.11-3.11-8.15-3.11-11.26,0l-9.473,9.473c-4.634-2.859-9.735-5.005-15.187-6.295
			v-13.388c0-4.396-3.567-7.964-7.963-7.964h-7.963c-4.396,0-7.964,3.568-7.964,7.964v13.387c-5.451,1.291-10.556,3.44-15.187,6.299
			l-9.468-9.473c-3.11-3.11-8.154-3.11-11.261,0l-5.634,5.63c-3.11,3.11-3.11,8.155-0.003,11.265l9.473,9.473
			c-2.858,4.63-5.005,9.735-6.295,15.183h-13.387c-4.396,0-7.964,3.567-7.964,7.963v7.964c0,4.396,3.568,7.963,7.964,7.963h13.387
			c1.291,5.447,3.441,10.552,6.3,15.183l-9.473,9.473c-3.106,3.106-3.106,8.154,0.004,11.265l5.63,5.63
			c3.106,3.106,8.151,3.106,11.261,0l9.473-9.473c4.63,2.862,9.735,5.009,15.187,6.299v13.387c0,4.396,3.568,7.964,7.964,7.964
			h7.963c4.396,0,7.964-3.568,7.964-7.964V271.15c5.447-1.291,10.552-3.44,15.183-6.299l9.473,9.473c3.109,3.11,8.15,3.11,11.26,0
			l5.631-5.63c3.11-3.111,3.11-8.155,0-11.265l-9.474-9.473c2.863-4.63,5.01-9.735,6.3-15.187h13.388
			c4.395,0,7.963-3.568,7.963-7.964v-7.963C313.611,212.449,310.044,208.882,305.647,208.882z M241.938,252.681
			c-17.591,0-31.854-14.262-31.854-31.854c0-17.591,14.264-31.854,31.854-31.854c17.592,0,31.854,14.263,31.854,31.854
			C273.794,238.419,259.531,252.681,241.938,252.681z"/>
	</g>
	<g id="Layer_4">
		<path fill="#66757F" d="M463.692,231.393l-16.373-5.993c0.86-7.246,0.517-14.453-0.908-21.397l15.829-7.346
			c5.195-2.411,7.455-8.583,5.043-13.779l-4.366-9.408c-2.412-5.196-8.579-7.454-13.774-5.042l-15.829,7.347
			c-4.39-5.573-9.667-10.482-15.757-14.5l5.993-16.376c1.968-5.378-0.801-11.339-6.178-13.307l-9.74-3.565
			c-5.378-1.969-11.34,0.798-13.308,6.175l-5.994,16.375c-7.243-0.861-14.45-0.517-21.396,0.907l-7.342-15.827
			c-2.412-5.197-8.583-7.456-13.774-5.042l-9.411,4.366c-5.198,2.411-7.456,8.583-5.05,13.777l7.347,15.829
			c-5.569,4.385-10.481,9.668-14.499,15.754l-16.375-5.994c-5.377-1.967-11.338,0.799-13.307,6.176l-3.565,9.742
			c-1.969,5.376,0.799,11.338,6.176,13.306l16.375,5.994c-0.861,7.241-0.514,14.448,0.908,21.393l-15.826,7.346
			c-5.191,2.409-7.452,8.585-5.04,13.781l4.366,9.408c2.408,5.189,8.58,7.448,13.774,5.042l15.829-7.347
			c4.383,5.575,9.665,10.486,15.756,14.504l-5.993,16.375c-1.968,5.377,0.8,11.339,6.177,13.307l9.741,3.565
			c5.377,1.968,11.337-0.799,13.305-6.175l5.994-16.376c7.242,0.861,14.447,0.517,21.394-0.907l7.347,15.828
			c2.412,5.197,8.579,7.454,13.774,5.042l9.406-4.367c5.197-2.411,7.456-8.583,5.045-13.779l-7.347-15.829
			c5.576-4.383,10.486-9.667,14.504-15.757l16.375,5.993c5.378,1.968,11.34-0.799,13.308-6.177l3.565-9.74
			C471.838,239.322,469.07,233.361,463.692,231.393z M366.15,256.448c-21.517-7.876-32.579-31.709-24.702-53.229
			c7.873-21.519,31.707-32.58,53.227-24.705c21.521,7.876,32.58,31.709,24.705,53.228
			C411.503,253.263,387.671,264.324,366.15,256.448z"/>
	</g>
</g>
</svg>
