<?xml version="1.0" encoding="utf-8"?>
<!-- Generator: Adobe Illustrator 16.0.0, SVG Export Plug-In . SVG Version: 6.00 Build 0)  -->
<!DOCTYPE svg PUBLIC "-//W3C//DTD SVG 1.1//EN" "http://www.w3.org/Graphics/SVG/1.1/DTD/svg11.dtd">
<svg version="1.1" xmlns="http://www.w3.org/2000/svg" xmlns:xlink="http://www.w3.org/1999/xlink" x="0px" y="0px" width="612px"
	 height="792px" viewBox="0 0 612 792" enable-background="new 0 0 612 792" xml:space="preserve">
<g id="Layer_2">
	<path fill="#99AAB5" d="M612,532c0,18.768-15.232,34-34,34H34c-18.768,0-34-15.232-34-34V260c0-18.768,15.232-34,34-34h544
		c18.768,0,34,15.232,34,34V532z"/>
	<path fill="#292F33" d="M93.5,379c0,9.401-7.616,17-17,17h-17c-9.384,0-17-7.599-17-17v-17c0-9.401,7.616-17,17-17h17
		c9.384,0,17,7.599,17,17V379z M161.5,379c0,9.401-7.616,17-17,17h-17c-9.384,0-17-7.599-17-17v-17c0-9.401,7.616-17,17-17h17
		c9.384,0,17,7.599,17,17V379z M229.5,379c0,9.401-7.616,17-17,17h-17c-9.384,0-17-7.599-17-17v-17c0-9.401,7.616-17,17-17h17
		c9.384,0,17,7.599,17,17V379z M297.5,379c0,9.401-7.616,17-17,17h-17c-9.384,0-17-7.599-17-17v-17c0-9.401,7.616-17,17-17h17
		c9.384,0,17,7.599,17,17V379z M365.5,379c0,9.401-7.599,17-17,17h-17c-9.401,0-17-7.599-17-17v-17c0-9.401,7.599-17,17-17h17
		c9.401,0,17,7.599,17,17V379z M433.5,379c0,9.401-7.599,17-17,17h-17c-9.401,0-17-7.599-17-17v-17c0-9.401,7.599-17,17-17h17
		c9.401,0,17,7.599,17,17V379z M501.5,379c0,9.401-7.599,17-17,17h-17c-9.401,0-17-7.599-17-17v-17c0-9.401,7.599-17,17-17h17
		c9.401,0,17,7.599,17,17V379z M569.5,379c0,9.401-7.599,17-17,17h-17c-9.401,0-17-7.599-17-17v-17c0-9.401,7.599-17,17-17h17
		c9.401,0,17,7.599,17,17V379z M127.5,447c0,9.401-7.616,17-17,17h-17c-9.384,0-17-7.599-17-17v-17c0-9.401,7.616-17,17-17h17
		c9.384,0,17,7.599,17,17V447z M195.5,447c0,9.401-7.616,17-17,17h-17c-9.384,0-17-7.599-17-17v-17c0-9.401,7.616-17,17-17h17
		c9.384,0,17,7.599,17,17V447z M263.5,447c0,9.401-7.616,17-17,17h-17c-9.384,0-17-7.599-17-17v-17c0-9.401,7.616-17,17-17h17
		c9.384,0,17,7.599,17,17V447z M331.5,447c0,9.401-7.599,17-17,17h-17c-9.384,0-17-7.599-17-17v-17c0-9.401,7.616-17,17-17h17
		c9.401,0,17,7.599,17,17V447z M399.5,447c0,9.401-7.599,17-17,17h-17c-9.401,0-17-7.599-17-17v-17c0-9.401,7.599-17,17-17h17
		c9.401,0,17,7.599,17,17V447z M467.5,447c0,9.401-7.599,17-17,17h-17c-9.401,0-17-7.599-17-17v-17c0-9.401,7.599-17,17-17h17
		c9.401,0,17,7.599,17,17V447z M535.5,447c0,9.401-7.599,17-17,17h-17c-9.401,0-17-7.599-17-17v-17c0-9.401,7.599-17,17-17h17
		c9.401,0,17,7.599,17,17V447z M170,515c0,9.401-7.616,17-17,17h-34c-9.384,0-17-7.599-17-17v-17c0-9.401,7.616-17,17-17h34
		c9.384,0,17,7.599,17,17V515z M510,515c0,9.401-7.599,17-17,17h-34c-9.401,0-17-7.599-17-17v-17c0-9.401,7.599-17,17-17h34
		c9.401,0,17,7.599,17,17V515z M425,515c0,9.401-7.599,17-17,17H204c-9.384,0-17-7.599-17-17v-17c0-9.401,7.616-17,17-17h204
		c9.401,0,17,7.599,17,17V515z M93.5,278.411c0,9.384-7.616,17-17,17h-17c-9.384,0-17-7.616-17-17c0-9.384,7.616-17,17-17h17
		C85.884,261.411,93.5,269.027,93.5,278.411z M161.5,278.411c0,9.384-7.616,17-17,17h-17c-9.384,0-17-7.616-17-17
		c0-9.384,7.616-17,17-17h17C153.884,261.411,161.5,269.027,161.5,278.411z M229.5,278.411c0,9.384-7.616,17-17,17h-17
		c-9.384,0-17-7.616-17-17c0-9.384,7.616-17,17-17h17C221.884,261.411,229.5,269.027,229.5,278.411z M297.5,278.411
		c0,9.384-7.616,17-17,17h-17c-9.384,0-17-7.616-17-17c0-9.384,7.616-17,17-17h17C289.884,261.411,297.5,269.027,297.5,278.411z
		 M365.5,278.411c0,9.384-7.599,17-17,17h-17c-9.401,0-17-7.616-17-17c0-9.384,7.599-17,17-17h17
		C357.901,261.411,365.5,269.027,365.5,278.411z M433.5,278.411c0,9.384-7.599,17-17,17h-17c-9.401,0-17-7.616-17-17
		c0-9.384,7.599-17,17-17h17C425.901,261.411,433.5,269.027,433.5,278.411z M501.5,278.411c0,9.384-7.599,17-17,17h-17
		c-9.401,0-17-7.616-17-17c0-9.384,7.599-17,17-17h17C493.901,261.411,501.5,269.027,501.5,278.411z M569.5,278.411
		c0,9.384-7.599,17-17,17h-17c-9.401,0-17-7.616-17-17c0-9.384,7.599-17,17-17h17C561.901,261.411,569.5,269.027,569.5,278.411z"/>
</g>
<g id="Layer_1">
	<path fill="#FFDC5D" d="M112.359,600.988h101.377v99.723H112.359V600.988z M391.146,600.988h101.377v99.723H391.146V600.988z"/>
	<path fill="#F9CA55" d="M492.523,635.457c0,0-38.016,25.344-101.377,12.672v-63.36h101.377V635.457z M112.359,635.457
		c0,0,38.016,25.344,101.377,12.672v-63.36H112.359V635.457z"/>
	<path fill="#FFDC5D" d="M124.816,507.265h101.377v101.378H124.816V507.265z M378.551,500.929h101.377v101.378H378.551V500.929z"/>
	<path fill="#FFDC5D" d="M79.069,421.487c0,0,0.038-15.523,15.549-15.485c15.536,0.051,15.485,15.574,15.485,15.574l-0.241,72.028
		c2.471-1.14,5.056-2.167,7.768-3.054l0.317-99.971c0,0,0.05-15.523,15.549-15.473c15.511,0.038,15.472,15.574,15.472,15.574
		l-0.266,94.027c2.522-0.229,5.12-0.406,7.73-0.533l0.355-109.005c0,0,0.038-15.523,15.561-15.46
		c15.524,0.051,15.46,15.574,15.46,15.574l-0.354,108.981c2.661,0.152,5.221,0.418,7.781,0.658l0.316-101.871
		c0,0,0.051-15.523,15.549-15.46c15.511,0.038,15.448,15.548,15.448,15.548l-0.305,107.727l-0.038,8.63v7.743
		c-46.558-0.114-77.719,38.549-77.858,77.351c0,7.755,7.755,7.806,7.755,7.806c0.127-46.607,31.262-77.49,77.833-77.351
		l22.822-53.071c0,0,5.006-14.687,19.718-9.656c14.674,4.968,9.694,19.68,9.694,19.68l-11.316,39.348
		c-4.486,15.637-8.68,31.376-10.885,47.444c-6.311,45.417-45.379,80.342-92.494,80.215c-51.386-0.216-92.951-42.009-92.786-93.394
		c0.013-2.712,0.177-5.297,0.431-7.73l-0.405-0.051L79.069,421.487L79.069,421.487z M525.688,421.487
		c0,0-0.037-15.523-15.549-15.485c-15.537,0.051-15.498,15.574-15.498,15.574l0.24,72.028c-2.457-1.14-5.057-2.167-7.756-3.054
		l-0.316-99.971c0,0-0.051-15.523-15.549-15.473c-15.523,0.038-15.484,15.574-15.484,15.574l0.277,94.027
		c-2.508-0.229-5.105-0.406-7.729-0.533l-0.342-109.005c0,0-0.053-15.523-15.576-15.46c-15.521,0.051-15.459,15.574-15.459,15.574
		l0.355,108.981c-2.662,0.152-5.221,0.418-7.781,0.658l-0.316-101.871c0,0-0.064-15.523-15.563-15.46
		c-15.51,0.038-15.447,15.548-15.447,15.548l0.305,107.727l0.037,8.63v7.743c46.559-0.114,77.719,38.549,77.871,77.351
		c0,7.755-7.754,7.806-7.754,7.806c-0.141-46.607-31.275-77.49-77.834-77.351l-22.822-53.071c0,0-4.992-14.687-19.719-9.656
		c-14.66,4.968-9.693,19.68-9.693,19.68l11.316,39.348c4.486,15.637,8.68,31.376,10.885,47.444
		c6.311,45.417,45.367,80.342,92.494,80.215c51.387-0.216,92.963-42.009,92.785-93.394c-0.012-2.712-0.176-5.297-0.43-7.73
		l0.404-0.051L525.688,421.487z"/>
	<path fill="#5DADEC" d="M372.658,353.349c-2.699,0-5.436-0.862-7.73-2.636c-5.551-4.284-6.564-12.241-2.281-17.779l37.752-48.851
		c4.244-5.525,12.229-6.59,17.766-2.281c5.551,4.283,6.564,12.241,2.281,17.779l-37.75,48.851
		C380.211,351.664,376.459,353.349,372.658,353.349z M233.011,353.349c-3.789,0-7.54-1.698-10.036-4.93l-37.75-48.838
		c-4.271-5.538-3.244-13.496,2.294-17.779c5.538-4.271,13.483-3.257,17.779,2.281l37.75,48.851
		c4.271,5.538,3.257,13.496-2.281,17.779C238.447,352.5,235.723,353.349,233.011,353.349z M302.442,347.545
		c-6.995,0-12.672-5.677-12.672-12.672v-50.689c0-6.995,5.677-12.672,12.672-12.672c7.007,0,12.671,5.677,12.671,12.672v50.689
		C315.113,341.868,309.449,347.545,302.442,347.545z"/>
</g>
<g id="Layer_3">
	<path fill="#66757F" d="M305.498,142.12H286.4c-1.841-7.777-4.908-15.059-8.987-21.666l13.514-13.514
		c4.437-4.436,4.437-11.633,0-16.07l-8.033-8.032c-4.437-4.437-11.628-4.437-16.064,0l-13.514,13.514
		c-6.612-4.079-13.889-7.141-21.666-8.981V68.272c0-6.271-5.089-11.361-11.361-11.361h-11.361c-6.271,0-11.361,5.09-11.361,11.361
		V87.37c-7.777,1.841-15.059,4.908-21.666,8.987l-13.508-13.514c-4.437-4.437-11.633-4.437-16.065,0l-8.038,8.033
		c-4.437,4.437-4.437,11.633-0.005,16.07l13.514,13.514c-4.078,6.606-7.14,13.889-8.981,21.66h-19.098
		c-6.272,0-11.361,5.089-11.361,11.361v11.361c0,6.271,5.089,11.361,11.361,11.361h19.098c1.841,7.771,4.908,15.054,8.987,21.66
		l-13.514,13.514c-4.431,4.431-4.431,11.633,0.006,16.07l8.032,8.033c4.432,4.431,11.628,4.431,16.065,0l13.514-13.514
		c6.606,4.084,13.889,7.146,21.666,8.987v19.098c0,6.271,5.09,11.361,11.361,11.361h11.361c6.272,0,11.361-5.09,11.361-11.361
		v-19.098c7.771-1.841,15.054-4.908,21.66-8.987l13.514,13.514c4.436,4.437,11.627,4.437,16.064,0l8.033-8.033
		c4.437-4.437,4.437-11.633,0-16.07l-13.514-13.514c4.084-6.606,7.146-13.889,8.987-21.666h19.098
		c6.271,0,11.361-5.09,11.361-11.361v-11.361C316.859,147.209,311.77,142.12,305.498,142.12z M214.609,204.605
		c-25.096,0-45.444-20.347-45.444-45.444c0-25.096,20.348-45.444,45.444-45.444c25.097,0,45.444,20.348,45.444,45.444
		C260.054,184.258,239.707,204.605,214.609,204.605z"/>
</g>
<g id="Layer_4">
	<path fill="#66757F" d="M530.968,174.235l-23.361-8.55c1.229-10.337,0.738-20.619-1.294-30.526l22.581-10.48
		c7.414-3.44,10.637-12.245,7.195-19.657l-6.229-13.422c-3.44-7.413-12.238-10.633-19.65-7.192l-22.581,10.481
		c-6.264-7.95-13.792-14.953-22.481-20.686l8.551-23.362c2.808-7.672-1.142-16.176-8.813-18.983l-13.896-5.087
		c-7.672-2.808-16.178,1.139-18.984,8.81l-8.551,23.361c-10.336-1.229-20.617-0.738-30.525,1.294l-10.475-22.579
		c-3.44-7.414-12.244-10.636-19.651-7.193l-13.426,6.228c-7.415,3.44-10.637,12.245-7.203,19.655l10.48,22.582
		c-7.946,6.256-14.953,13.793-20.684,22.475l-23.362-8.55c-7.67-2.807-16.175,1.14-18.982,8.811l-5.087,13.898
		c-2.808,7.67,1.14,16.176,8.811,18.983l23.362,8.551c-1.229,10.33-0.735,20.611,1.295,30.519l-22.579,10.48
		c-7.405,3.436-10.63,12.248-7.189,19.661l6.229,13.421c3.436,7.403,12.24,10.625,19.65,7.193l22.582-10.481
		c6.253,7.954,13.79,14.959,22.479,20.692l-8.551,23.362c-2.808,7.67,1.14,16.176,8.812,18.983l13.896,5.086
		c7.673,2.808,16.176-1.14,18.983-8.81l8.551-23.363c10.331,1.229,20.611,0.737,30.52-1.294l10.48,22.581
		c3.44,7.414,12.238,10.633,19.651,7.193l13.42-6.23c7.414-3.44,10.637-12.245,7.196-19.658l-10.48-22.582
		c7.954-6.253,14.959-13.791,20.691-22.479l23.362,8.55c7.671,2.808,16.177-1.14,18.984-8.812l5.087-13.896
		C542.587,185.547,538.639,177.042,530.968,174.235z M391.813,209.979c-30.698-11.236-46.479-45.236-35.243-75.936
		c11.234-30.699,45.236-46.48,75.936-35.244c30.699,11.236,46.479,45.236,35.243,75.936
		C456.513,205.435,422.513,221.215,391.813,209.979z"/>
</g>
</svg>
